<?xml version="1.0" encoding="utf-8"?>
<!-- Generator: Adobe Illustrator 25.0.1, SVG Export Plug-In . SVG Version: 6.00 Build 0)  -->
<svg version="1.1" id="layer" xmlns="http://www.w3.org/2000/svg" xmlns:xlink="http://www.w3.org/1999/xlink" x="0px" y="0px"
	 viewBox="0 0 960 960" style="enable-background:new 0 0 960 960;" xml:space="preserve">
<path d="M746.57,785.53H643.33c-9.47-18.2-16.21-42.06-20.21-71.55c-65.91,56.8-137.1,85.21-213.56,85.21
	c-61.17,0-109.43-15.29-144.74-45.88c-35.32-30.59-52.98-71-52.98-121.26c0-48.06,17.02-87.66,51.07-118.8
	c34.04-31.13,93.13-51.79,177.24-61.99l91.76-13.65c34.22-5.46,62.45-12.2,84.66-20.21c0-29.5-0.91-50.34-2.73-62.54
	c-1.83-12.19-7.19-24.85-16.11-37.96c-8.93-13.11-23.21-23.67-42.88-31.68c-19.66-8.01-46.07-12.02-79.2-12.02
	c-42.25,0-75.65,7.83-100.23,23.49c-24.58,15.66-41.43,44.79-50.52,87.39l-96.13-12.56c10.56-59.35,37.69-103.96,81.38-133.82
	c43.7-29.85,103.78-44.79,180.25-44.79c69.55,0,120.62,10.29,153.21,30.86c32.58,20.58,52.61,45.43,60.08,74.56
	c7.46,29.14,11.2,66.64,11.2,112.52v132.18c0,80.48,1.54,134.46,4.64,161.95C722.62,732.47,731.63,759.32,746.57,785.53z
	 M616.57,530.46v-35.5c-51.34,17.12-114.16,30.68-188.44,40.69c-74.28,10.02-111.42,41.43-111.42,94.22
	c0,26.58,10.01,48.53,30.04,65.82c20.02,17.3,48.79,25.94,86.3,25.94c48.42,0,91.12-14.47,128.08-43.42
	C598.09,649.26,616.57,600.01,616.57,530.46z"/>
</svg>
